<?xml version="1.0" encoding="UTF-8" standalone="no"?>
<!-- Created with Inkscape (http://www.inkscape.org/) -->

<svg
   width="831.38446mm"
   height="256.57263mm"
   viewBox="0 0 831.38446 256.57263"
   version="1.1"
   id="svg5"
   inkscape:version="1.2.2 (b0a8486541, 2022-12-01)"
   sodipodi:docname="arte isometrico.svg"
   xmlns:inkscape="http://www.inkscape.org/namespaces/inkscape"
   xmlns:sodipodi="http://sodipodi.sourceforge.net/DTD/sodipodi-0.dtd"
   xmlns="http://www.w3.org/2000/svg"
   xmlns:svg="http://www.w3.org/2000/svg">
  <sodipodi:namedview
     id="namedview7"
     pagecolor="#ffffff"
     bordercolor="#000000"
     borderopacity="0.25"
     inkscape:showpageshadow="2"
     inkscape:pageopacity="0.0"
     inkscape:pagecheckerboard="0"
     inkscape:deskcolor="#d1d1d1"
     inkscape:document-units="mm"
     showgrid="false"
     showguides="true"
     inkscape:zoom="0.18307029"
     inkscape:cx="1545.8544"
     inkscape:cy="893.0996"
     inkscape:window-width="1280"
     inkscape:window-height="647"
     inkscape:window-x="0"
     inkscape:window-y="0"
     inkscape:window-maximized="1"
     inkscape:current-layer="layer1">
    <inkscape:grid
       type="axonomgrid"
       id="grid132"
       empspacing="30"
       originx="-51.829003"
       originy="-163.58038" />
  </sodipodi:namedview>
  <defs
     id="defs2" />
  <g
     inkscape:label="Capa 1"
     inkscape:groupmode="layer"
     id="layer1"
     transform="translate(-51.829003,-163.58038)">
    <path
       style="fill:#71d94e;fill-opacity:1;fill-rule:evenodd;stroke:#000000;stroke-width:0.264999"
       d="m 156.01707,329.9235 103.92304,-60 -103.92304,-60 -103.923068,60 z"
       id="path792" />
    <path
       style="fill:#1b7b21;fill-opacity:1;fill-rule:evenodd;stroke:#000000;stroke-width:0.264999"
       d="m 156.01707,329.9235 103.92304,-60 v 30 l -103.92304,60 z"
       id="path794" />
    <path
       style="fill:#2ccc37;fill-opacity:1;fill-rule:evenodd;stroke:#000000;stroke-width:0.264999"
       d="m 156.01707,359.9235 -103.923068,-60 v -30 l 103.923068,60 z"
       id="path3544" />
    <path
       style="fill:#9dd94e;fill-opacity:1;fill-rule:evenodd;stroke:#000000;stroke-width:0.264999"
       d="m 156.01706,314.9235 77.94229,-45 -77.94229,-45 -77.942298,45 z"
       id="path4788" />
    <path
       style="fill:#7a2d1a;fill-opacity:1;fill-rule:evenodd;stroke:#000000;stroke-width:0.264999"
       d="m 156.01707,359.9235 v 60.00001 L 259.94011,359.9235 v -60 z"
       id="path4844" />
    <path
       style="fill:#ce4c2c;fill-opacity:1;fill-rule:evenodd;stroke:#000000;stroke-width:0.264999"
       d="M 156.01707,419.92351 52.094002,359.9235 v -60 l 103.923068,60 z"
       id="path5038" />
    <path
       style="fill:#e5e5e5;fill-opacity:1;fill-rule:evenodd;stroke:none;stroke-width:0.264999"
       d="m 467.78619,329.9235 103.9231,-60 -103.9231,-60 -103.92304,60 z"
       id="path5040" />
    <path
       style="fill:#818181;fill-opacity:1;fill-rule:evenodd;stroke:none;stroke-width:0.264999"
       d="m 467.78619,329.9235 103.9231,-60 v 30 l -103.9231,60 z"
       id="path5042" />
    <path
       style="fill:#c4c4c4;fill-opacity:1;fill-rule:evenodd;stroke:none;stroke-width:0.264999"
       d="m 467.78619,359.9235 -103.92304,-60 v -30 l 103.92304,60 z"
       id="path5044" />
    <path
       style="fill:#ffffff;fill-opacity:1;fill-rule:evenodd;stroke:none;stroke-width:0.264999"
       d="m 467.78619,314.9235 77.9423,-45 -77.9423,-45 -77.94228,45 z"
       id="path5046" />
    <path
       style="fill:#818181;fill-opacity:1;fill-rule:evenodd;stroke:none;stroke-width:0.264999"
       d="m 467.78619,359.9235 v 60.00001 l 103.9231,-60.00001 v -60 z"
       id="path5048" />
    <path
       style="fill:#c4c4c4;fill-opacity:1;fill-rule:evenodd;stroke:none;stroke-width:0.264999"
       d="M 467.78619,419.92351 363.86315,359.9235 v -60 l 103.92304,60 z"
       id="path5050" />
    <path
       style="fill:#ff745a;fill-opacity:1;fill-rule:evenodd;stroke:none;stroke-width:0.264999"
       d="m 779.29034,329.9235 103.9231,-60 -103.9231,-60 -103.92304,60 z"
       id="path5190" />
    <path
       style="fill:#ff2a04;fill-opacity:1;fill-rule:evenodd;stroke:none;stroke-width:0.264999"
       d="m 779.29034,329.9235 103.9231,-60 v 30 l -103.9231,60 z"
       id="path5192" />
    <path
       style="fill:#ff4f2e;fill-opacity:1;fill-rule:evenodd;stroke:none;stroke-width:0.264999"
       d="m 779.29034,359.9235 -103.92304,-60 v -30 l 103.92304,60 z"
       id="path5194" />
    <path
       style="fill:#ffb8ab;fill-opacity:1;fill-rule:evenodd;stroke:none;stroke-width:0.264999"
       d="m 779.29034,314.9235 77.9423,-45 -77.9423,-45 -77.94228,45 z"
       id="path5196" />
    <path
       style="fill:#ff2a04;fill-opacity:1;fill-rule:evenodd;stroke:none;stroke-width:0.264999"
       d="m 779.29034,359.9235 v 60.00001 l 103.9231,-60.00001 v -60 z"
       id="path5198" />
    <path
       style="fill:#ff4f2e;fill-opacity:1;fill-rule:evenodd;stroke:none;stroke-width:0.264999"
       d="M 779.29034,419.92351 675.3673,359.9235 v -60 l 103.92304,60 z"
       id="path5200" />
    <path
       style="fill:#125612;fill-opacity:1;fill-rule:evenodd;stroke:none;stroke-width:0.264999"
       d="m 191.88294,224.7103 v -40.75328 l -35.29337,20.37665 v 40.75327 z"
       id="path5877" />
    <path
       style="fill:#22a322;fill-opacity:1;fill-rule:evenodd;stroke:none;stroke-width:0.264999"
       d="m 191.88294,183.95702 -35.29337,-20.37664 -35.29337,20.37664 35.29337,20.37665 z"
       id="path6851" />
    <path
       style="fill:#1f931f;fill-opacity:1;fill-rule:evenodd;stroke:none;stroke-width:0.264999"
       d="m 121.2962,183.95702 v 40.75328 l 35.29337,20.37664 v -40.75327 z"
       id="path6961" />
    <path
       style="fill:#4d1e19;fill-opacity:1;fill-rule:evenodd;stroke:none;stroke-width:0.264999"
       d="m 156.58957,245.08694 v 40.75328 l 17.64669,-10.18831 v -40.75329 z"
       id="path7371" />
    <path
       style="fill:#87352b;fill-opacity:1;fill-rule:evenodd;stroke:none;stroke-width:0.264999"
       d="m 156.58957,285.84022 v -40.75328 l -17.64668,-10.18832 v 40.75329 z"
       id="path10343" />
    <path
       style="fill:#c6c6c6;fill-opacity:1;fill-rule:evenodd;stroke:none;stroke-width:0.264999"
       d="m 503.0667,224.7103 v -40.75328 l -35.29337,20.37665 v 40.75327 z"
       id="path10399" />
    <path
       style="fill:#f2f2f2;fill-opacity:1;fill-rule:evenodd;stroke:none;stroke-width:0.264999"
       d="m 503.0667,183.95702 -35.29337,-20.37664 -35.29337,20.37664 35.29337,20.37665 z"
       id="path10401" />
    <path
       style="fill:#a5a5a5;fill-opacity:1;fill-rule:evenodd;stroke:none;stroke-width:0.264999"
       d="m 432.47996,183.95702 v 40.75328 l 35.29337,20.37664 v -40.75327 z"
       id="path10403" />
    <path
       style="fill:#4d1e19;fill-opacity:1;fill-rule:evenodd;stroke:none;stroke-width:0.264999"
       d="m 467.77333,245.08694 v 40.75328 l 17.64669,-10.18831 v -40.75329 z"
       id="path10405" />
    <path
       style="fill:#87352b;fill-opacity:1;fill-rule:evenodd;stroke:none;stroke-width:0.264999"
       d="m 467.77333,285.84022 v -40.75328 l -17.64668,-10.18832 v 40.75329 z"
       id="path10407" />
    <path
       style="fill:#4d1e19;fill-opacity:1;fill-rule:evenodd;stroke:none;stroke-width:0.264999"
       d="m 779.21984,226.77468 v 60.00002 l 25.98077,-14.99999 v -60.00003 z"
       id="path10415" />
    <g
       id="g11221"
       transform="matrix(0.0228434,-0.51091112,0.51091112,0.0228434,618.87574,774.33854)"
       style="stroke-width:1.95533">
      <path
         style="fill:#ff8100;fill-opacity:1;fill-rule:evenodd;stroke:none;stroke-width:0.518162"
         d="m 1013.2497,180 v 48 l 15.5884,12 31.177,-24 -15.5885,-12 15.5885,-12 -15.5885,-12 -15.5885,-12 z"
         id="path11217" />
      <path
         style="fill:#ea2300;fill-opacity:1;fill-rule:evenodd;stroke:none;stroke-width:0.518162"
         d="m 1013.2497,189 v 30 l 25.9807,-15 z"
         id="path11219" />
    </g>
    <path
       style="fill:#87352b;fill-opacity:1;fill-rule:evenodd;stroke:none;stroke-width:0.264999"
       d="m 779.21984,286.7747 v -60.00002 l -25.98076,-15 v 60.00003 z"
       id="path10417" />
    <path
       style="fill:#462420;fill-opacity:1;fill-rule:evenodd;stroke:none;stroke-width:0.264999"
       d="m 753.23907,211.24818 25.98076,-15 25.98076,15 -25.98076,15 z"
       id="path10667" />
    <g
       id="g11215"
       transform="matrix(0.0228434,-0.51091112,0.51091112,0.0228434,652.60009,818.28239)"
       style="stroke-width:1.95533">
      <path
         style="fill:#ff8100;fill-opacity:1;fill-rule:evenodd;stroke:none;stroke-width:0.518162"
         d="m 1013.2497,180 v 48 l 15.5884,12 31.177,-24 -15.5885,-12 15.5885,-12 -15.5885,-12 -15.5885,-12 z"
         id="path10995" />
      <path
         style="fill:#ea2300;fill-opacity:1;fill-rule:evenodd;stroke:none;stroke-width:0.518162"
         d="m 1013.2497,189 v 30 l 25.9807,-15 z"
         id="path10723" />
    </g>
    <g
       id="g11227"
       transform="matrix(0.0228434,-0.51091112,0.51091112,0.0228434,652.60009,818.28239)"
       style="stroke-width:1.95533">
      <g
         id="g11233">
        <path
           style="fill:#ff8100;fill-opacity:1;fill-rule:evenodd;stroke:none;stroke-width:0.518162"
           d="m 1013.2497,180 v 48 l 15.5884,12 31.177,-24 -15.5885,-12 15.5885,-12 -15.5885,-12 -15.5885,-12 z"
           id="path11223" />
        <path
           style="fill:#ea2300;fill-opacity:1;fill-rule:evenodd;stroke:none;stroke-width:0.518162"
           d="m 1013.2497,189 v 30 l 25.9807,-15 z"
           id="path11225" />
      </g>
    </g>
  </g>
</svg>
