<?xml version="1.0" encoding="UTF-8" standalone="no"?>
<!-- Created with Inkscape (http://www.inkscape.org/) -->

<svg
   width="1280mm"
   height="720mm"
   viewBox="0 0 1280 720"
   version="1.1"
   id="svg5"
   inkscape:version="1.2.2 (b0a8486541, 2022-12-01)"
   sodipodi:docname="Simple Background.svg"
   xmlns:inkscape="http://www.inkscape.org/namespaces/inkscape"
   xmlns:sodipodi="http://sodipodi.sourceforge.net/DTD/sodipodi-0.dtd"
   xmlns="http://www.w3.org/2000/svg"
   xmlns:svg="http://www.w3.org/2000/svg">
  <sodipodi:namedview
     id="namedview7"
     pagecolor="#ffffff"
     bordercolor="#000000"
     borderopacity="0.25"
     inkscape:showpageshadow="2"
     inkscape:pageopacity="0.0"
     inkscape:pagecheckerboard="0"
     inkscape:deskcolor="#d1d1d1"
     inkscape:document-units="mm"
     showgrid="false"
     inkscape:zoom="0.12945024"
     inkscape:cx="2553.1046"
     inkscape:cy="1618.3825"
     inkscape:window-width="1280"
     inkscape:window-height="647"
     inkscape:window-x="0"
     inkscape:window-y="0"
     inkscape:window-maximized="1"
     inkscape:current-layer="layer1"
     showguides="false" />
  <defs
     id="defs2" />
  <g
     inkscape:label="Capa 1"
     inkscape:groupmode="layer"
     id="layer1">
    <rect
       style="fill:#87ceeb;fill-opacity:1;fill-rule:evenodd;stroke-width:0.264999"
       id="rect288"
       width="1280"
       height="720"
       x="0.7226277"
       y="0.7226277" />
    <g
       id="g5931">
      <path
         sodipodi:type="star"
         style="fill:#4d3d20;fill-opacity:1;fill-rule:evenodd;stroke-width:0.606582"
         id="path5921"
         inkscape:flatsided="true"
         sodipodi:sides="3"
         sodipodi:cx="1479.7836"
         sodipodi:cy="181.9071"
         sodipodi:r1="401.30621"
         sodipodi:r2="191.65308"
         sodipodi:arg1="0.5663573"
         sodipodi:arg2="1.6135549"
         inkscape:rounded="0.04"
         inkscape:randomized="0"
         d="m 1818.4303,397.23264 c -14.9182,23.46213 -681.5878,-5.06106 -694.4475,-29.71166 -12.8597,-24.65059 345.1769,-587.74176 372.9548,-586.55329 27.7779,1.18846 336.4109,592.80282 321.4927,616.26495 z"
         inkscape:transform-center-x="1.7520854e-05"
         inkscape:transform-center-y="-66.189992"
         transform="matrix(0.4107769,0.00154054,-0.00174246,0.4646183,467.49222,327.98612)" />
      <path
         id="path5923"
         style="fill:#ffffff;fill-opacity:1;fill-rule:evenodd;stroke-width:0.264999"
         d="m 1082.7813,228.52577 c -3.8321,-0.19985 -9.3746,7.49627 -33.0535,46.96709 l 16.2124,3.85039 5.905,19.55258 15.6873,-18.20064 8.2459,-6.51167 9.8282,-9.20725 c -20.9587,-43.27575 -18.9011,-36.24584 -22.8253,-36.4505 z"
         sodipodi:nodetypes="sccccccs" />
    </g>
    <g
       id="g5919">
      <path
         sodipodi:type="star"
         style="fill:#4d3d20;fill-opacity:1;fill-rule:evenodd;stroke-width:0.3427"
         id="path5819"
         inkscape:flatsided="true"
         sodipodi:sides="3"
         sodipodi:cx="1479.7836"
         sodipodi:cy="181.9071"
         sodipodi:r1="401.30621"
         sodipodi:r2="191.65308"
         sodipodi:arg1="0.5663573"
         sodipodi:arg2="1.6135549"
         inkscape:rounded="0.04"
         inkscape:randomized="0"
         d="m 1818.4303,397.23264 c -14.9182,23.46213 -681.5878,-5.06106 -694.4475,-29.71166 -12.8597,-24.65059 345.1769,-587.74176 372.9548,-586.55329 27.7779,1.18846 336.4109,592.80282 321.4927,616.26495 z"
         inkscape:transform-center-x="1.7520854e-05"
         inkscape:transform-center-y="-66.189992"
         transform="matrix(0.72440888,-0.06231354,0.07048111,0.81935869,-512.97207,314.68905)" />
      <path
         id="path5890"
         style="fill:#ffffff;fill-opacity:1;fill-rule:evenodd;stroke-width:0.264999"
         d="M 555.98521,41.943499 C 549.19788,42.19783 519.8726,97.03436 484.37718,170.36667 l 29.66382,-4.81056 34.67349,54.74953 25.62154,-68.03503 51.97389,72.37079 16.37284,-55.07468 C 598.88327,96.59317 562.93563,41.683057 555.98521,41.943499 Z"
         sodipodi:nodetypes="sccccccs" />
    </g>
    <g
       id="g5817"
       transform="matrix(0.69687812,0,0,0.69687812,55.109157,141.33448)"
       style="stroke-width:1.43497">
      <path
         sodipodi:type="star"
         style="fill:#3b2810;fill-opacity:1;fill-rule:evenodd;stroke-width:0.585498"
         id="path5388"
         inkscape:flatsided="true"
         sodipodi:sides="3"
         sodipodi:cx="1479.7836"
         sodipodi:cy="181.9071"
         sodipodi:r1="401.30621"
         sodipodi:r2="191.65308"
         sodipodi:arg1="0.5663573"
         sodipodi:arg2="1.6135549"
         inkscape:rounded="0.04"
         inkscape:randomized="0"
         d="m 1818.4303,397.23264 c -14.9182,23.46213 -681.5878,-5.06106 -694.4475,-29.71166 -12.8597,-24.65059 345.1769,-587.74176 372.9548,-586.55329 27.7779,1.18846 336.4109,592.80282 321.4927,616.26495 z"
         inkscape:transform-center-x="1.7520854e-05"
         inkscape:transform-center-y="-66.189992"
         transform="matrix(0.61068354,0,0,0.69072713,-585.30002,199.33192)" />
      <path
         id="path5444"
         style="fill:#ffffff;fill-opacity:1;fill-rule:evenodd;stroke-width:0.380266"
         d="m 329.57801,45.872596 c -4.8538,-0.234888 -47.20572,64.745814 -75.05317,110.488874 l 35.24911,-17.61714 c 0,0 2.89023,59.25546 17.3428,59.25547 9.82879,1e-5 27.45969,-72.98532 37.57647,-72.2627 4.42796,0.31629 26.09389,7.84556 36.05667,12.14906 -26.1107,-52.303351 -46.067,-91.766527 -51.17188,-92.013564 z"
         sodipodi:nodetypes="sccsscs" />
    </g>
    <path
       sodipodi:type="star"
       style="fill:#3b2810;fill-opacity:1;fill-rule:evenodd;stroke-width:0.468082"
       id="path5899"
       inkscape:flatsided="true"
       sodipodi:sides="3"
       sodipodi:cx="1479.7836"
       sodipodi:cy="181.9071"
       sodipodi:r1="401.30621"
       sodipodi:r2="191.65308"
       sodipodi:arg1="0.5663573"
       sodipodi:arg2="1.6135549"
       inkscape:rounded="0.04"
       inkscape:randomized="0"
       d="m 1818.4303,397.23264 c -14.9182,23.46213 -681.5878,-5.06106 -694.4475,-29.71166 -12.8597,-24.65059 345.1769,-587.74176 372.9548,-586.55329 27.7779,1.18846 336.4109,592.80282 321.4927,616.26495 z"
       inkscape:transform-center-x="2.0504862e-05"
       inkscape:transform-center-y="-66.189992"
       transform="matrix(0.51683583,0.01027404,-0.01095811,0.61992449,103.99698,221.98558)" />
    <path
       id="path5901"
       style="fill:#ffffff;fill-opacity:1;fill-rule:evenodd;stroke-width:0.264999"
       d="m 880.06818,101.58165 c -4.81803,-0.34334 -29.62193,38.46728 -60.16091,90.66109 l 27.11253,-12.83511 0.66829,53.01368 30.66597,-54.61822 27.14157,28.05136 14.84309,-29.21546 c -25.55519,-58.16394 -35.33674,-74.70575 -40.27054,-75.05734 z"
       sodipodi:nodetypes="sccccccs" />
    <path
       id="path2723"
       style="fill:#5cb12d;fill-opacity:1;fill-rule:evenodd;stroke-width:0.265"
       d="m 807.42462,392.45191 a 459.31198,259.54276 1.0499519 0 0 -463.9908,251.08235 459.31198,259.54276 1.0499519 0 0 11.83752,60.78389 h 898.87946 a 459.31198,259.54276 1.0499519 0 0 7.7525,-43.9508 459.31198,259.54276 1.0499519 0 0 -454.47868,-267.91544 z" />
    <path
       id="path2441"
       style="fill:#3f9b0b;fill-opacity:1;fill-rule:evenodd;stroke-width:0.265"
       d="M 814.78097 393.99221 A 459.31198 259.54276 8.1077871e-17 0 0 355.46893 653.53461 A 459.31198 259.54276 8.1077871e-17 0 0 368.41827 714.09138 L 1267.1468 697.62023 A 459.31198 259.54276 8.1077871e-17 0 0 1274.0927 653.53475 A 459.31198 259.54276 8.1077871e-17 0 0 814.78097 393.99221 z "
       transform="rotate(1.0499519)" />
    <g
       id="g5322"
       transform="matrix(0.52137866,-0.19764346,0.19764346,0.52137866,321.47808,236.31063)"
       style="stroke-width:1.79345">
      <ellipse
         style="fill:#0d5109;fill-opacity:1;fill-rule:evenodd;stroke-width:0.475264"
         id="path2863"
         cx="914.6452"
         cy="922.8208"
         rx="129.78764"
         ry="76.64624" />
      <circle
         style="fill:#0d5109;fill-opacity:1;fill-rule:evenodd;stroke-width:0.475264"
         id="path5309"
         cx="802.47809"
         cy="883.41235"
         r="42.996349" />
      <ellipse
         style="fill:#0d5109;fill-opacity:1;fill-rule:evenodd;stroke-width:0.475264"
         id="circle5311"
         cx="870.04382"
         cy="854.146"
         rx="41.912411"
         ry="55.642338" />
      <ellipse
         style="fill:#0d5109;fill-opacity:1;fill-rule:evenodd;stroke-width:0.476019"
         id="ellipse5313"
         cx="1271.735"
         cy="240.92719"
         rx="43.242748"
         ry="58.239429"
         transform="matrix(0.85185779,0.52377314,-0.58986618,0.80750102,0,0)" />
      <ellipse
         style="fill:#0d5109;fill-opacity:1;fill-rule:evenodd;stroke-width:0.475922"
         id="ellipse5315"
         cx="1318.6682"
         cy="388.40955"
         rx="44.869865"
         ry="56.639015"
         transform="matrix(0.90830339,0.41831202,-0.4846427,0.87471221,0,0)" />
    </g>
    <g
       id="g5334"
       transform="matrix(0.31084255,-0.04435459,0.04435459,0.31084255,-253.58529,182.22592)"
       style="stroke-width:3.1848">
      <ellipse
         style="fill:#0d5109;fill-opacity:1;fill-rule:evenodd;stroke-width:0.84397"
         id="ellipse5324"
         cx="914.6452"
         cy="922.8208"
         rx="129.78764"
         ry="76.64624" />
      <circle
         style="fill:#0d5109;fill-opacity:1;fill-rule:evenodd;stroke-width:0.84397"
         id="circle5326"
         cx="802.47809"
         cy="883.41235"
         r="42.996349" />
      <ellipse
         style="fill:#0d5109;fill-opacity:1;fill-rule:evenodd;stroke-width:0.84397"
         id="ellipse5328"
         cx="870.04382"
         cy="854.146"
         rx="41.912411"
         ry="55.642338" />
      <ellipse
         style="fill:#0d5109;fill-opacity:1;fill-rule:evenodd;stroke-width:0.84531"
         id="ellipse5330"
         cx="1271.735"
         cy="240.92719"
         rx="43.242748"
         ry="58.239429"
         transform="matrix(0.85185779,0.52377314,-0.58986618,0.80750102,0,0)" />
      <ellipse
         style="fill:#0d5109;fill-opacity:1;fill-rule:evenodd;stroke-width:0.845138"
         id="ellipse5332"
         cx="1318.6682"
         cy="388.40955"
         rx="44.869865"
         ry="56.639015"
         transform="matrix(0.90830339,0.41831202,-0.4846427,0.87471221,0,0)" />
    </g>
    <path
       id="path2335"
       style="fill:#5cb12d;fill-opacity:1;fill-rule:evenodd;stroke-width:0.264999"
       d="M 154.0924,417.69429 C 87.58084,417.72225 37.015222,429.87902 0.72243652,443.86892 V 703.25981 H 1280.7229 V 443.40487 c -61.235,-8.06243 -137.5259,-0.55497 -211.7633,54.19514 C 905.44777,618.18999 699.0135,558.9173 380.16543,456.7224 290.48941,427.98009 215.52573,417.66847 154.0924,417.69429 Z" />
    <path
       id="path1952"
       style="fill:#3f9b0b;fill-opacity:1;fill-rule:evenodd;stroke-width:0.264999"
       d="M 153.73109,435.1569 C 87.219526,435.18486 36.653908,447.34163 0.36112265,461.33153 V 720.72242 H 1280.3616 V 460.86748 c -61.235,-8.06243 -137.5259,-0.55497 -211.7633,54.19514 C 905.08646,635.6526 698.65219,576.37991 379.80412,474.18501 290.1281,445.4427 215.16442,435.13108 153.73109,435.1569 Z" />
    <g
       id="g6046">
      <circle
         style="fill:#ffffff;fill-opacity:1;fill-rule:evenodd;stroke-width:0.264999"
         id="path6037"
         cx="188.60583"
         cy="66.48175"
         r="37.576641" />
      <ellipse
         style="fill:#ffffff;fill-opacity:1;fill-rule:evenodd;stroke-width:0.264999"
         id="circle6039"
         cx="232.32481"
         cy="78.766426"
         rx="29.266422"
         ry="31.79562" />
      <ellipse
         style="fill:#ffffff;fill-opacity:1;fill-rule:evenodd;stroke-width:0.264999"
         id="circle6041"
         cx="147.41605"
         cy="66.843071"
         rx="28.18248"
         ry="30.711678" />
    </g>
    <ellipse
       style="fill:#ffffff;fill-opacity:1;fill-rule:evenodd;stroke-width:0.264999"
       id="circle6048"
       cx="716.81049"
       cy="75.358696"
       rx="40.828465"
       ry="28.18248" />
    <ellipse
       style="fill:#ffffff;fill-opacity:1;fill-rule:evenodd;stroke-width:0.264999"
       id="ellipse6052"
       cx="681.76306"
       cy="81.501045"
       rx="36.854012"
       ry="30.711678" />
    <circle
       style="fill:#ffffff;fill-opacity:1;fill-rule:evenodd;stroke-width:0.264999"
       id="circle6056"
       cx="1109.3101"
       cy="-106.14119"
       r="31.072992"
       transform="scale(1,-1)" />
    <ellipse
       style="fill:#ffffff;fill-opacity:1;fill-rule:evenodd;stroke-width:0.264999"
       id="ellipse6058"
       cx="1142.4482"
       cy="-100.99823"
       rx="23.021284"
       ry="25.010777"
       transform="scale(1,-1)" />
    <circle
       style="fill:#ffdc00;fill-opacity:1;fill-rule:evenodd;stroke-width:0.264999"
       id="path6122"
       cx="1052.2249"
       cy="81.901527"
       r="30.658499" />
    <ellipse
       style="fill:#ffffff;fill-opacity:1;fill-rule:evenodd;stroke-width:0.265"
       id="ellipse6060"
       cx="1082.3472"
       cy="-106.67342"
       rx="30.014975"
       ry="32.70863"
       transform="scale(1,-1)" />
    <g
       id="g8031"
       transform="matrix(0.54623699,0,0,0.54623699,71.300308,258.92741)"
       style="stroke-width:1.83071">
      <ellipse
         style="fill:#ffdc00;fill-opacity:1;fill-rule:evenodd;stroke-width:0.485136"
         id="path6178"
         cx="-159.52242"
         cy="539.56335"
         rx="4.8671012"
         ry="11.241449"
         transform="rotate(-34.197212)"
         inkscape:tile-cx="171.31562"
         inkscape:tile-cy="535.93559"
         inkscape:tile-w="14.983322"
         inkscape:tile-h="19.383897"
         inkscape:tile-x0="163.82396"
         inkscape:tile-y0="526.24364" />
      <ellipse
         style="fill:#ffdc00;fill-opacity:1;fill-rule:evenodd;stroke-width:0.485136"
         id="ellipse7936"
         cx="-158.02414"
         cy="569.22546"
         rx="4.8671012"
         ry="11.241449"
         transform="rotate(-34.197212)"
         inkscape:tile-cx="171.31562"
         inkscape:tile-cy="535.93559"
         inkscape:tile-w="14.983322"
         inkscape:tile-h="19.383897"
         inkscape:tile-x0="163.82396"
         inkscape:tile-y0="526.24364" />
      <ellipse
         style="fill:#ffdc00;fill-opacity:1;fill-rule:evenodd;stroke-width:0.485136"
         id="ellipse7938"
         cx="-575.86456"
         cy="-36.383965"
         rx="4.8671012"
         ry="11.241449"
         transform="matrix(-0.27565995,-0.96125522,-0.96125522,0.27565995,0,0)"
         inkscape:tile-cx="171.31562"
         inkscape:tile-cy="535.93559"
         inkscape:tile-w="14.983322"
         inkscape:tile-h="19.383897"
         inkscape:tile-x0="163.82396"
         inkscape:tile-y0="526.24364" />
      <ellipse
         style="fill:#ffdc00;fill-opacity:1;fill-rule:evenodd;stroke-width:0.485136"
         id="ellipse7940"
         cx="-114.89957"
         cy="551.04755"
         rx="4.8671012"
         ry="11.241449"
         transform="matrix(-0.99273932,0.1202857,0.1202857,0.99273932,0,0)"
         inkscape:tile-cx="171.31562"
         inkscape:tile-cy="535.93559"
         inkscape:tile-w="14.983322"
         inkscape:tile-h="19.383897"
         inkscape:tile-x0="163.82396"
         inkscape:tile-y0="526.24364" />
      <ellipse
         style="fill:#ffdc00;fill-opacity:1;fill-rule:evenodd;stroke-width:0.485136"
         id="ellipse7942"
         cx="-408.42465"
         cy="395.28659"
         rx="4.8671012"
         ry="11.241449"
         transform="matrix(-0.89540591,-0.44525079,-0.44525079,0.89540591,0,0)"
         inkscape:tile-cx="171.31562"
         inkscape:tile-cy="535.93559"
         inkscape:tile-w="14.983322"
         inkscape:tile-h="19.383897"
         inkscape:tile-x0="163.82396"
         inkscape:tile-y0="526.24364" />
      <ellipse
         style="fill:#ffdc00;fill-opacity:1;fill-rule:evenodd;stroke-width:0.485136"
         id="ellipse7944"
         cx="-437.92148"
         cy="-388.82318"
         rx="4.8671012"
         ry="11.241449"
         transform="matrix(0.37797959,-0.92581393,-0.92581393,-0.37797959,0,0)"
         inkscape:tile-cx="171.31562"
         inkscape:tile-cy="535.93559"
         inkscape:tile-w="14.983322"
         inkscape:tile-h="19.383897"
         inkscape:tile-x0="163.82396"
         inkscape:tile-y0="526.24364" />
      <ellipse
         style="fill:#ffdc00;fill-opacity:1;fill-rule:evenodd;stroke-width:0.485136"
         id="ellipse7946"
         cx="-509.75012"
         cy="-256.98764"
         rx="4.8671012"
         ry="11.241449"
         transform="matrix(0.1670108,-0.98595507,-0.98595507,-0.1670108,0,0)"
         inkscape:tile-cx="171.31562"
         inkscape:tile-cy="535.93559"
         inkscape:tile-w="14.983322"
         inkscape:tile-h="19.383897"
         inkscape:tile-x0="163.82396"
         inkscape:tile-y0="526.24364" />
      <ellipse
         style="fill:#ffdc00;fill-opacity:1;fill-rule:evenodd;stroke-width:0.485136"
         id="ellipse7948"
         cx="-571.73608"
         cy="98.138542"
         rx="4.8671012"
         ry="11.241449"
         transform="matrix(-0.45007894,-0.89298877,-0.89298877,0.45007894,0,0)"
         inkscape:tile-cx="171.31562"
         inkscape:tile-cy="535.93559"
         inkscape:tile-w="14.983322"
         inkscape:tile-h="19.383897"
         inkscape:tile-x0="163.82396"
         inkscape:tile-y0="526.24364" />
      <ellipse
         style="fill:#ffdc00;fill-opacity:1;fill-rule:evenodd;stroke-width:0.485136"
         id="ellipse7950"
         cx="-299.33133"
         cy="505.23935"
         rx="4.8671012"
         ry="11.241449"
         transform="matrix(-0.97438331,-0.22489368,-0.22489368,0.97438331,0,0)"
         inkscape:tile-cx="171.31562"
         inkscape:tile-cy="535.93559"
         inkscape:tile-w="14.983322"
         inkscape:tile-h="19.383897"
         inkscape:tile-x0="163.82396"
         inkscape:tile-y0="526.24364" />
      <circle
         style="fill:#ffdc00;fill-opacity:1;fill-rule:evenodd;stroke-width:0.485136"
         id="path6176"
         cx="180.62965"
         cy="548.02069"
         r="6.8981624" />
    </g>
    <g
       id="g8053"
       transform="matrix(0.54623699,0,0,0.54623699,31.44426,297.25053)"
       style="stroke-width:1.83071">
      <ellipse
         style="fill:#ffdc00;fill-opacity:1;fill-rule:evenodd;stroke-width:0.485136"
         id="ellipse8033"
         cx="-159.52242"
         cy="539.56335"
         rx="4.8671012"
         ry="11.241449"
         transform="rotate(-34.197212)"
         inkscape:tile-cx="171.31562"
         inkscape:tile-cy="535.93559"
         inkscape:tile-w="14.983322"
         inkscape:tile-h="19.383897"
         inkscape:tile-x0="163.82396"
         inkscape:tile-y0="526.24364" />
      <ellipse
         style="fill:#ffdc00;fill-opacity:1;fill-rule:evenodd;stroke-width:0.485136"
         id="ellipse8035"
         cx="-158.02414"
         cy="569.22546"
         rx="4.8671012"
         ry="11.241449"
         transform="rotate(-34.197212)"
         inkscape:tile-cx="171.31562"
         inkscape:tile-cy="535.93559"
         inkscape:tile-w="14.983322"
         inkscape:tile-h="19.383897"
         inkscape:tile-x0="163.82396"
         inkscape:tile-y0="526.24364" />
      <ellipse
         style="fill:#ffdc00;fill-opacity:1;fill-rule:evenodd;stroke-width:0.485136"
         id="ellipse8037"
         cx="-575.86456"
         cy="-36.383965"
         rx="4.8671012"
         ry="11.241449"
         transform="matrix(-0.27565995,-0.96125522,-0.96125522,0.27565995,0,0)"
         inkscape:tile-cx="171.31562"
         inkscape:tile-cy="535.93559"
         inkscape:tile-w="14.983322"
         inkscape:tile-h="19.383897"
         inkscape:tile-x0="163.82396"
         inkscape:tile-y0="526.24364" />
      <ellipse
         style="fill:#ffdc00;fill-opacity:1;fill-rule:evenodd;stroke-width:0.485136"
         id="ellipse8039"
         cx="-114.89957"
         cy="551.04755"
         rx="4.8671012"
         ry="11.241449"
         transform="matrix(-0.99273932,0.1202857,0.1202857,0.99273932,0,0)"
         inkscape:tile-cx="171.31562"
         inkscape:tile-cy="535.93559"
         inkscape:tile-w="14.983322"
         inkscape:tile-h="19.383897"
         inkscape:tile-x0="163.82396"
         inkscape:tile-y0="526.24364" />
      <ellipse
         style="fill:#ffdc00;fill-opacity:1;fill-rule:evenodd;stroke-width:0.485136"
         id="ellipse8041"
         cx="-408.42465"
         cy="395.28659"
         rx="4.8671012"
         ry="11.241449"
         transform="matrix(-0.89540591,-0.44525079,-0.44525079,0.89540591,0,0)"
         inkscape:tile-cx="171.31562"
         inkscape:tile-cy="535.93559"
         inkscape:tile-w="14.983322"
         inkscape:tile-h="19.383897"
         inkscape:tile-x0="163.82396"
         inkscape:tile-y0="526.24364" />
      <ellipse
         style="fill:#ffdc00;fill-opacity:1;fill-rule:evenodd;stroke-width:0.485136"
         id="ellipse8043"
         cx="-437.92148"
         cy="-388.82318"
         rx="4.8671012"
         ry="11.241449"
         transform="matrix(0.37797959,-0.92581393,-0.92581393,-0.37797959,0,0)"
         inkscape:tile-cx="171.31562"
         inkscape:tile-cy="535.93559"
         inkscape:tile-w="14.983322"
         inkscape:tile-h="19.383897"
         inkscape:tile-x0="163.82396"
         inkscape:tile-y0="526.24364" />
      <ellipse
         style="fill:#ffdc00;fill-opacity:1;fill-rule:evenodd;stroke-width:0.485136"
         id="ellipse8045"
         cx="-509.75012"
         cy="-256.98764"
         rx="4.8671012"
         ry="11.241449"
         transform="matrix(0.1670108,-0.98595507,-0.98595507,-0.1670108,0,0)"
         inkscape:tile-cx="171.31562"
         inkscape:tile-cy="535.93559"
         inkscape:tile-w="14.983322"
         inkscape:tile-h="19.383897"
         inkscape:tile-x0="163.82396"
         inkscape:tile-y0="526.24364" />
      <ellipse
         style="fill:#ffdc00;fill-opacity:1;fill-rule:evenodd;stroke-width:0.485136"
         id="ellipse8047"
         cx="-571.73608"
         cy="98.138542"
         rx="4.8671012"
         ry="11.241449"
         transform="matrix(-0.45007894,-0.89298877,-0.89298877,0.45007894,0,0)"
         inkscape:tile-cx="171.31562"
         inkscape:tile-cy="535.93559"
         inkscape:tile-w="14.983322"
         inkscape:tile-h="19.383897"
         inkscape:tile-x0="163.82396"
         inkscape:tile-y0="526.24364" />
      <ellipse
         style="fill:#ffdc00;fill-opacity:1;fill-rule:evenodd;stroke-width:0.485136"
         id="ellipse8049"
         cx="-299.33133"
         cy="505.23935"
         rx="4.8671012"
         ry="11.241449"
         transform="matrix(-0.97438331,-0.22489368,-0.22489368,0.97438331,0,0)"
         inkscape:tile-cx="171.31562"
         inkscape:tile-cy="535.93559"
         inkscape:tile-w="14.983322"
         inkscape:tile-h="19.383897"
         inkscape:tile-x0="163.82396"
         inkscape:tile-y0="526.24364" />
      <circle
         style="fill:#ffdc00;fill-opacity:1;fill-rule:evenodd;stroke-width:0.485136"
         id="circle8051"
         cx="180.62965"
         cy="548.02069"
         r="6.8981624" />
    </g>
    <g
       id="g8075"
       transform="matrix(0.342532,0,0,0.342532,201.92688,345.34369)"
       style="fill:#c52a41;fill-opacity:1;stroke-width:2.91944">
      <ellipse
         style="fill:#c52a41;fill-opacity:1;fill-rule:evenodd;stroke-width:0.773648"
         id="ellipse8055"
         cx="-159.52242"
         cy="539.56335"
         rx="4.8671012"
         ry="11.241449"
         transform="rotate(-34.197212)"
         inkscape:tile-cx="171.31562"
         inkscape:tile-cy="535.93559"
         inkscape:tile-w="14.983322"
         inkscape:tile-h="19.383897"
         inkscape:tile-x0="163.82396"
         inkscape:tile-y0="526.24364" />
      <ellipse
         style="fill:#c52a41;fill-opacity:1;fill-rule:evenodd;stroke-width:0.773648"
         id="ellipse8057"
         cx="-158.02414"
         cy="569.22546"
         rx="4.8671012"
         ry="11.241449"
         transform="rotate(-34.197212)"
         inkscape:tile-cx="171.31562"
         inkscape:tile-cy="535.93559"
         inkscape:tile-w="14.983322"
         inkscape:tile-h="19.383897"
         inkscape:tile-x0="163.82396"
         inkscape:tile-y0="526.24364" />
      <ellipse
         style="fill:#c52a41;fill-opacity:1;fill-rule:evenodd;stroke-width:0.773648"
         id="ellipse8059"
         cx="-575.86456"
         cy="-36.383965"
         rx="4.8671012"
         ry="11.241449"
         transform="matrix(-0.27565995,-0.96125522,-0.96125522,0.27565995,0,0)"
         inkscape:tile-cx="171.31562"
         inkscape:tile-cy="535.93559"
         inkscape:tile-w="14.983322"
         inkscape:tile-h="19.383897"
         inkscape:tile-x0="163.82396"
         inkscape:tile-y0="526.24364" />
      <ellipse
         style="fill:#c52a41;fill-opacity:1;fill-rule:evenodd;stroke-width:0.773648"
         id="ellipse8061"
         cx="-114.89957"
         cy="551.04755"
         rx="4.8671012"
         ry="11.241449"
         transform="matrix(-0.99273932,0.1202857,0.1202857,0.99273932,0,0)"
         inkscape:tile-cx="171.31562"
         inkscape:tile-cy="535.93559"
         inkscape:tile-w="14.983322"
         inkscape:tile-h="19.383897"
         inkscape:tile-x0="163.82396"
         inkscape:tile-y0="526.24364" />
      <ellipse
         style="fill:#c52a41;fill-opacity:1;fill-rule:evenodd;stroke-width:0.773648"
         id="ellipse8063"
         cx="-408.42465"
         cy="395.28659"
         rx="4.8671012"
         ry="11.241449"
         transform="matrix(-0.89540591,-0.44525079,-0.44525079,0.89540591,0,0)"
         inkscape:tile-cx="171.31562"
         inkscape:tile-cy="535.93559"
         inkscape:tile-w="14.983322"
         inkscape:tile-h="19.383897"
         inkscape:tile-x0="163.82396"
         inkscape:tile-y0="526.24364" />
      <ellipse
         style="fill:#c52a41;fill-opacity:1;fill-rule:evenodd;stroke-width:0.773648"
         id="ellipse8065"
         cx="-437.92148"
         cy="-388.82318"
         rx="4.8671012"
         ry="11.241449"
         transform="matrix(0.37797959,-0.92581393,-0.92581393,-0.37797959,0,0)"
         inkscape:tile-cx="171.31562"
         inkscape:tile-cy="535.93559"
         inkscape:tile-w="14.983322"
         inkscape:tile-h="19.383897"
         inkscape:tile-x0="163.82396"
         inkscape:tile-y0="526.24364" />
      <ellipse
         style="fill:#c52a41;fill-opacity:1;fill-rule:evenodd;stroke-width:0.773648"
         id="ellipse8067"
         cx="-509.75012"
         cy="-256.98764"
         rx="4.8671012"
         ry="11.241449"
         transform="matrix(0.1670108,-0.98595507,-0.98595507,-0.1670108,0,0)"
         inkscape:tile-cx="171.31562"
         inkscape:tile-cy="535.93559"
         inkscape:tile-w="14.983322"
         inkscape:tile-h="19.383897"
         inkscape:tile-x0="163.82396"
         inkscape:tile-y0="526.24364" />
      <ellipse
         style="fill:#c52a41;fill-opacity:1;fill-rule:evenodd;stroke-width:0.773648"
         id="ellipse8069"
         cx="-571.73608"
         cy="98.138542"
         rx="4.8671012"
         ry="11.241449"
         transform="matrix(-0.45007894,-0.89298877,-0.89298877,0.45007894,0,0)"
         inkscape:tile-cx="171.31562"
         inkscape:tile-cy="535.93559"
         inkscape:tile-w="14.983322"
         inkscape:tile-h="19.383897"
         inkscape:tile-x0="163.82396"
         inkscape:tile-y0="526.24364" />
      <ellipse
         style="fill:#c52a41;fill-opacity:1;fill-rule:evenodd;stroke-width:0.773648"
         id="ellipse8071"
         cx="-299.33133"
         cy="505.23935"
         rx="4.8671012"
         ry="11.241449"
         transform="matrix(-0.97438331,-0.22489368,-0.22489368,0.97438331,0,0)"
         inkscape:tile-cx="171.31562"
         inkscape:tile-cy="535.93559"
         inkscape:tile-w="14.983322"
         inkscape:tile-h="19.383897"
         inkscape:tile-x0="163.82396"
         inkscape:tile-y0="526.24364" />
      <circle
         style="fill:#c52a41;fill-opacity:1;fill-rule:evenodd;stroke-width:0.773648"
         id="circle8073"
         cx="180.62965"
         cy="548.02069"
         r="6.8981624" />
    </g>
    <g
       id="g8132"
       transform="matrix(0.54623699,0,0,-0.54623699,1056.4601,910.97119)"
       style="stroke-width:1.83071">
      <ellipse
         style="fill:#ffdc00;fill-opacity:1;fill-rule:evenodd;stroke-width:0.485136"
         id="ellipse8112"
         cx="-159.52242"
         cy="539.56335"
         rx="4.8671012"
         ry="11.241449"
         transform="rotate(-34.197212)"
         inkscape:tile-cx="171.31562"
         inkscape:tile-cy="535.93559"
         inkscape:tile-w="14.983322"
         inkscape:tile-h="19.383897"
         inkscape:tile-x0="163.82396"
         inkscape:tile-y0="526.24364" />
      <ellipse
         style="fill:#ffdc00;fill-opacity:1;fill-rule:evenodd;stroke-width:0.485136"
         id="ellipse8114"
         cx="-158.02414"
         cy="569.22546"
         rx="4.8671012"
         ry="11.241449"
         transform="rotate(-34.197212)"
         inkscape:tile-cx="171.31562"
         inkscape:tile-cy="535.93559"
         inkscape:tile-w="14.983322"
         inkscape:tile-h="19.383897"
         inkscape:tile-x0="163.82396"
         inkscape:tile-y0="526.24364" />
      <ellipse
         style="fill:#ffdc00;fill-opacity:1;fill-rule:evenodd;stroke-width:0.485136"
         id="ellipse8116"
         cx="-575.86456"
         cy="-36.383965"
         rx="4.8671012"
         ry="11.241449"
         transform="matrix(-0.27565995,-0.96125522,-0.96125522,0.27565995,0,0)"
         inkscape:tile-cx="171.31562"
         inkscape:tile-cy="535.93559"
         inkscape:tile-w="14.983322"
         inkscape:tile-h="19.383897"
         inkscape:tile-x0="163.82396"
         inkscape:tile-y0="526.24364" />
      <ellipse
         style="fill:#ffdc00;fill-opacity:1;fill-rule:evenodd;stroke-width:0.485136"
         id="ellipse8118"
         cx="-114.89957"
         cy="551.04755"
         rx="4.8671012"
         ry="11.241449"
         transform="matrix(-0.99273932,0.1202857,0.1202857,0.99273932,0,0)"
         inkscape:tile-cx="171.31562"
         inkscape:tile-cy="535.93559"
         inkscape:tile-w="14.983322"
         inkscape:tile-h="19.383897"
         inkscape:tile-x0="163.82396"
         inkscape:tile-y0="526.24364" />
      <ellipse
         style="fill:#ffdc00;fill-opacity:1;fill-rule:evenodd;stroke-width:0.485136"
         id="ellipse8120"
         cx="-408.42465"
         cy="395.28659"
         rx="4.8671012"
         ry="11.241449"
         transform="matrix(-0.89540591,-0.44525079,-0.44525079,0.89540591,0,0)"
         inkscape:tile-cx="171.31562"
         inkscape:tile-cy="535.93559"
         inkscape:tile-w="14.983322"
         inkscape:tile-h="19.383897"
         inkscape:tile-x0="163.82396"
         inkscape:tile-y0="526.24364" />
      <ellipse
         style="fill:#ffdc00;fill-opacity:1;fill-rule:evenodd;stroke-width:0.485136"
         id="ellipse8122"
         cx="-437.92148"
         cy="-388.82318"
         rx="4.8671012"
         ry="11.241449"
         transform="matrix(0.37797959,-0.92581393,-0.92581393,-0.37797959,0,0)"
         inkscape:tile-cx="171.31562"
         inkscape:tile-cy="535.93559"
         inkscape:tile-w="14.983322"
         inkscape:tile-h="19.383897"
         inkscape:tile-x0="163.82396"
         inkscape:tile-y0="526.24364" />
      <ellipse
         style="fill:#ffdc00;fill-opacity:1;fill-rule:evenodd;stroke-width:0.485136"
         id="ellipse8124"
         cx="-509.75012"
         cy="-256.98764"
         rx="4.8671012"
         ry="11.241449"
         transform="matrix(0.1670108,-0.98595507,-0.98595507,-0.1670108,0,0)"
         inkscape:tile-cx="171.31562"
         inkscape:tile-cy="535.93559"
         inkscape:tile-w="14.983322"
         inkscape:tile-h="19.383897"
         inkscape:tile-x0="163.82396"
         inkscape:tile-y0="526.24364" />
      <ellipse
         style="fill:#ffdc00;fill-opacity:1;fill-rule:evenodd;stroke-width:0.485136"
         id="ellipse8126"
         cx="-571.73608"
         cy="98.138542"
         rx="4.8671012"
         ry="11.241449"
         transform="matrix(-0.45007894,-0.89298877,-0.89298877,0.45007894,0,0)"
         inkscape:tile-cx="171.31562"
         inkscape:tile-cy="535.93559"
         inkscape:tile-w="14.983322"
         inkscape:tile-h="19.383897"
         inkscape:tile-x0="163.82396"
         inkscape:tile-y0="526.24364" />
      <ellipse
         style="fill:#ffdc00;fill-opacity:1;fill-rule:evenodd;stroke-width:0.485136"
         id="ellipse8128"
         cx="-299.33133"
         cy="505.23935"
         rx="4.8671012"
         ry="11.241449"
         transform="matrix(-0.97438331,-0.22489368,-0.22489368,0.97438331,0,0)"
         inkscape:tile-cx="171.31562"
         inkscape:tile-cy="535.93559"
         inkscape:tile-w="14.983322"
         inkscape:tile-h="19.383897"
         inkscape:tile-x0="163.82396"
         inkscape:tile-y0="526.24364" />
      <circle
         style="fill:#ffdc00;fill-opacity:1;fill-rule:evenodd;stroke-width:0.485136"
         id="circle8130"
         cx="180.62965"
         cy="548.02069"
         r="6.8981624" />
    </g>
    <g
       id="g8154"
       transform="matrix(0.42721718,0,0,-0.42721718,1037.4736,839.41882)"
       style="stroke-width:2.34073">
      <ellipse
         style="fill:#ffdc00;fill-opacity:1;fill-rule:evenodd;stroke-width:0.620292"
         id="ellipse8134"
         cx="-159.52242"
         cy="539.56335"
         rx="4.8671012"
         ry="11.241449"
         transform="rotate(-34.197212)"
         inkscape:tile-cx="171.31562"
         inkscape:tile-cy="535.93559"
         inkscape:tile-w="14.983322"
         inkscape:tile-h="19.383897"
         inkscape:tile-x0="163.82396"
         inkscape:tile-y0="526.24364" />
      <ellipse
         style="fill:#ffdc00;fill-opacity:1;fill-rule:evenodd;stroke-width:0.620292"
         id="ellipse8136"
         cx="-158.02414"
         cy="569.22546"
         rx="4.8671012"
         ry="11.241449"
         transform="rotate(-34.197212)"
         inkscape:tile-cx="171.31562"
         inkscape:tile-cy="535.93559"
         inkscape:tile-w="14.983322"
         inkscape:tile-h="19.383897"
         inkscape:tile-x0="163.82396"
         inkscape:tile-y0="526.24364" />
      <ellipse
         style="fill:#ffdc00;fill-opacity:1;fill-rule:evenodd;stroke-width:0.620292"
         id="ellipse8138"
         cx="-575.86456"
         cy="-36.383965"
         rx="4.8671012"
         ry="11.241449"
         transform="matrix(-0.27565995,-0.96125522,-0.96125522,0.27565995,0,0)"
         inkscape:tile-cx="171.31562"
         inkscape:tile-cy="535.93559"
         inkscape:tile-w="14.983322"
         inkscape:tile-h="19.383897"
         inkscape:tile-x0="163.82396"
         inkscape:tile-y0="526.24364" />
      <ellipse
         style="fill:#ffdc00;fill-opacity:1;fill-rule:evenodd;stroke-width:0.620292"
         id="ellipse8140"
         cx="-114.89957"
         cy="551.04755"
         rx="4.8671012"
         ry="11.241449"
         transform="matrix(-0.99273932,0.1202857,0.1202857,0.99273932,0,0)"
         inkscape:tile-cx="171.31562"
         inkscape:tile-cy="535.93559"
         inkscape:tile-w="14.983322"
         inkscape:tile-h="19.383897"
         inkscape:tile-x0="163.82396"
         inkscape:tile-y0="526.24364" />
      <ellipse
         style="fill:#ffdc00;fill-opacity:1;fill-rule:evenodd;stroke-width:0.620292"
         id="ellipse8142"
         cx="-408.42465"
         cy="395.28659"
         rx="4.8671012"
         ry="11.241449"
         transform="matrix(-0.89540591,-0.44525079,-0.44525079,0.89540591,0,0)"
         inkscape:tile-cx="171.31562"
         inkscape:tile-cy="535.93559"
         inkscape:tile-w="14.983322"
         inkscape:tile-h="19.383897"
         inkscape:tile-x0="163.82396"
         inkscape:tile-y0="526.24364" />
      <ellipse
         style="fill:#ffdc00;fill-opacity:1;fill-rule:evenodd;stroke-width:0.620292"
         id="ellipse8144"
         cx="-437.92148"
         cy="-388.82318"
         rx="4.8671012"
         ry="11.241449"
         transform="matrix(0.37797959,-0.92581393,-0.92581393,-0.37797959,0,0)"
         inkscape:tile-cx="171.31562"
         inkscape:tile-cy="535.93559"
         inkscape:tile-w="14.983322"
         inkscape:tile-h="19.383897"
         inkscape:tile-x0="163.82396"
         inkscape:tile-y0="526.24364" />
      <ellipse
         style="fill:#ffdc00;fill-opacity:1;fill-rule:evenodd;stroke-width:0.620292"
         id="ellipse8146"
         cx="-509.75012"
         cy="-256.98764"
         rx="4.8671012"
         ry="11.241449"
         transform="matrix(0.1670108,-0.98595507,-0.98595507,-0.1670108,0,0)"
         inkscape:tile-cx="171.31562"
         inkscape:tile-cy="535.93559"
         inkscape:tile-w="14.983322"
         inkscape:tile-h="19.383897"
         inkscape:tile-x0="163.82396"
         inkscape:tile-y0="526.24364" />
      <ellipse
         style="fill:#ffdc00;fill-opacity:1;fill-rule:evenodd;stroke-width:0.620292"
         id="ellipse8148"
         cx="-571.73608"
         cy="98.138542"
         rx="4.8671012"
         ry="11.241449"
         transform="matrix(-0.45007894,-0.89298877,-0.89298877,0.45007894,0,0)"
         inkscape:tile-cx="171.31562"
         inkscape:tile-cy="535.93559"
         inkscape:tile-w="14.983322"
         inkscape:tile-h="19.383897"
         inkscape:tile-x0="163.82396"
         inkscape:tile-y0="526.24364" />
      <ellipse
         style="fill:#ffdc00;fill-opacity:1;fill-rule:evenodd;stroke-width:0.620292"
         id="ellipse8150"
         cx="-299.33133"
         cy="505.23935"
         rx="4.8671012"
         ry="11.241449"
         transform="matrix(-0.97438331,-0.22489368,-0.22489368,0.97438331,0,0)"
         inkscape:tile-cx="171.31562"
         inkscape:tile-cy="535.93559"
         inkscape:tile-w="14.983322"
         inkscape:tile-h="19.383897"
         inkscape:tile-x0="163.82396"
         inkscape:tile-y0="526.24364" />
      <circle
         style="fill:#ffdc00;fill-opacity:1;fill-rule:evenodd;stroke-width:0.620292"
         id="circle8152"
         cx="180.62965"
         cy="548.02069"
         r="6.8981624" />
    </g>
    <g
       id="g8176"
       transform="matrix(0.342532,0,0,-0.342532,1187.0866,824.55491)"
       style="fill:#c52a41;fill-opacity:1;stroke-width:2.91944">
      <ellipse
         style="fill:#c52a41;fill-opacity:1;fill-rule:evenodd;stroke-width:0.773648"
         id="ellipse8156"
         cx="-159.52242"
         cy="539.56335"
         rx="4.8671012"
         ry="11.241449"
         transform="rotate(-34.197212)"
         inkscape:tile-cx="171.31562"
         inkscape:tile-cy="535.93559"
         inkscape:tile-w="14.983322"
         inkscape:tile-h="19.383897"
         inkscape:tile-x0="163.82396"
         inkscape:tile-y0="526.24364" />
      <ellipse
         style="fill:#c52a41;fill-opacity:1;fill-rule:evenodd;stroke-width:0.773648"
         id="ellipse8158"
         cx="-158.02414"
         cy="569.22546"
         rx="4.8671012"
         ry="11.241449"
         transform="rotate(-34.197212)"
         inkscape:tile-cx="171.31562"
         inkscape:tile-cy="535.93559"
         inkscape:tile-w="14.983322"
         inkscape:tile-h="19.383897"
         inkscape:tile-x0="163.82396"
         inkscape:tile-y0="526.24364" />
      <ellipse
         style="fill:#c52a41;fill-opacity:1;fill-rule:evenodd;stroke-width:0.773648"
         id="ellipse8160"
         cx="-575.86456"
         cy="-36.383965"
         rx="4.8671012"
         ry="11.241449"
         transform="matrix(-0.27565995,-0.96125522,-0.96125522,0.27565995,0,0)"
         inkscape:tile-cx="171.31562"
         inkscape:tile-cy="535.93559"
         inkscape:tile-w="14.983322"
         inkscape:tile-h="19.383897"
         inkscape:tile-x0="163.82396"
         inkscape:tile-y0="526.24364" />
      <ellipse
         style="fill:#c52a41;fill-opacity:1;fill-rule:evenodd;stroke-width:0.773648"
         id="ellipse8162"
         cx="-114.89957"
         cy="551.04755"
         rx="4.8671012"
         ry="11.241449"
         transform="matrix(-0.99273932,0.1202857,0.1202857,0.99273932,0,0)"
         inkscape:tile-cx="171.31562"
         inkscape:tile-cy="535.93559"
         inkscape:tile-w="14.983322"
         inkscape:tile-h="19.383897"
         inkscape:tile-x0="163.82396"
         inkscape:tile-y0="526.24364" />
      <ellipse
         style="fill:#c52a41;fill-opacity:1;fill-rule:evenodd;stroke-width:0.773648"
         id="ellipse8164"
         cx="-408.42465"
         cy="395.28659"
         rx="4.8671012"
         ry="11.241449"
         transform="matrix(-0.89540591,-0.44525079,-0.44525079,0.89540591,0,0)"
         inkscape:tile-cx="171.31562"
         inkscape:tile-cy="535.93559"
         inkscape:tile-w="14.983322"
         inkscape:tile-h="19.383897"
         inkscape:tile-x0="163.82396"
         inkscape:tile-y0="526.24364" />
      <ellipse
         style="fill:#c52a41;fill-opacity:1;fill-rule:evenodd;stroke-width:0.773648"
         id="ellipse8166"
         cx="-437.92148"
         cy="-388.82318"
         rx="4.8671012"
         ry="11.241449"
         transform="matrix(0.37797959,-0.92581393,-0.92581393,-0.37797959,0,0)"
         inkscape:tile-cx="171.31562"
         inkscape:tile-cy="535.93559"
         inkscape:tile-w="14.983322"
         inkscape:tile-h="19.383897"
         inkscape:tile-x0="163.82396"
         inkscape:tile-y0="526.24364" />
      <ellipse
         style="fill:#c52a41;fill-opacity:1;fill-rule:evenodd;stroke-width:0.773648"
         id="ellipse8168"
         cx="-509.75012"
         cy="-256.98764"
         rx="4.8671012"
         ry="11.241449"
         transform="matrix(0.1670108,-0.98595507,-0.98595507,-0.1670108,0,0)"
         inkscape:tile-cx="171.31562"
         inkscape:tile-cy="535.93559"
         inkscape:tile-w="14.983322"
         inkscape:tile-h="19.383897"
         inkscape:tile-x0="163.82396"
         inkscape:tile-y0="526.24364" />
      <ellipse
         style="fill:#c52a41;fill-opacity:1;fill-rule:evenodd;stroke-width:0.773648"
         id="ellipse8170"
         cx="-571.73608"
         cy="98.138542"
         rx="4.8671012"
         ry="11.241449"
         transform="matrix(-0.45007894,-0.89298877,-0.89298877,0.45007894,0,0)"
         inkscape:tile-cx="171.31562"
         inkscape:tile-cy="535.93559"
         inkscape:tile-w="14.983322"
         inkscape:tile-h="19.383897"
         inkscape:tile-x0="163.82396"
         inkscape:tile-y0="526.24364" />
      <ellipse
         style="fill:#c52a41;fill-opacity:1;fill-rule:evenodd;stroke-width:0.773648"
         id="ellipse8172"
         cx="-299.33133"
         cy="505.23935"
         rx="4.8671012"
         ry="11.241449"
         transform="matrix(-0.97438331,-0.22489368,-0.22489368,0.97438331,0,0)"
         inkscape:tile-cx="171.31562"
         inkscape:tile-cy="535.93559"
         inkscape:tile-w="14.983322"
         inkscape:tile-h="19.383897"
         inkscape:tile-x0="163.82396"
         inkscape:tile-y0="526.24364" />
      <circle
         style="fill:#c52a41;fill-opacity:1;fill-rule:evenodd;stroke-width:0.773648"
         id="circle8174"
         cx="180.62965"
         cy="548.02069"
         r="6.8981624" />
    </g>
    <path
       id="ellipse8246"
       style="fill:#c52a41;fill-opacity:1;fill-rule:evenodd;stroke-width:0.264999"
       d="M 1.6107544 638.1104 A 6.8070474 2.9471812 83.091409 0 0 1.4174845 638.11971 A 6.8070474 2.9471812 83.091409 0 0 0.36121826 638.7822 L 0.36121826 667.32568 A 2.9471812 6.8070474 12.996626 0 0 3.7093343 661.51931 A 2.9471812 6.8070474 12.996626 0 0 3.9361938 660.32714 A 6.8070474 2.9471812 55.802788 0 0 5.1748779 662.5208 A 6.8070474 2.9471812 55.802788 0 0 11.438062 666.49472 A 6.8070474 2.9471812 55.802788 0 0 10.191626 659.42073 A 6.8070474 2.9471812 22.20859 0 0 17.079061 659.06158 A 6.8070474 2.9471812 22.20859 0 0 11.890747 653.7601 A 6.8070474 2.9471812 22.20859 0 0 11.823568 653.73374 A 2.9471812 6.8070474 73.998653 0 0 16.874939 649.23634 A 2.9471812 6.8070474 73.998653 0 0 10.378178 648.05967 A 2.9471812 6.8070474 26.439385 0 0 10.540442 647.74444 A 2.9471812 6.8070474 26.439385 0 0 10.932666 640.33714 A 2.9471812 6.8070474 26.439385 0 0 5.2627279 645.1198 A 2.9471812 6.8070474 26.439385 0 0 5.2286214 645.19111 A 6.8070474 2.9471812 83.091409 0 0 5.1624756 644.52293 A 6.8070474 2.9471812 83.091409 0 0 1.6107544 638.11092 L 1.6107544 638.1104 z " />
  </g>
</svg>
